<svg width="31" height="35" viewBox="0 0 31 35" fill="none" xmlns="http://www.w3.org/2000/svg">
<path d="M15 11.7143C15.9425 11.7143 16.7997 11.885 17.6568 12.2282L18.2997 10.6429C17.2282 10.2143 16.1568 10 15 10C10.0277 10 6 14.0279 6 19C6 23.9721 10.0279 28 15 28C19.9721 28 24 23.9721 24 19C24 16.9007 23.2718 14.8432 21.9007 13.2143L20.5714 14.3293C21.6429 15.615 22.2857 17.2857 22.2857 18.9998C22.2857 23.0277 19.0279 26.2855 15 26.2855C10.9721 26.2855 7.71429 23.0277 7.71429 18.9998C7.71429 14.9719 10.9721 11.7143 15 11.7143Z" fill="white"/>
<path d="M20.838 3.97742C19.1158 3.31076 17.3498 3 15.5 3C6.93281 3 0 10.1564 0 19C0 27.8436 6.93281 35 15.5 35C24.0672 35 31 27.8436 31 19C31 15.4444 29.8799 12.0658 27.7708 9.26756L26.3934 10.3335C28.2451 12.8231 29.2358 15.8437 29.2358 19.0002C29.2358 26.8233 23.0366 33.2224 15.458 33.2224C7.87934 33.2224 1.6802 26.8233 1.6802 19.0002C1.6802 11.1771 7.87934 4.77796 15.458 4.77796C17.0944 4.77796 18.6871 5.08872 20.1941 5.62169L20.838 3.97742Z" fill="white"/>
<path d="M25.6616 0L21.0016 6.38468L21.454 8.54151L16.1616 16.1327C15.8452 16.0468 15.529 15.9609 15.1667 15.9609C13.4031 15.9609 12 17.2988 12 18.9804C12 20.6621 13.4031 22 15.1667 22C16.9303 22 18.3334 20.6621 18.3334 18.9804C18.3334 18.2474 18.0612 17.5566 17.5647 17.0393L23.6718 9.9217H25.9338L31 3.45118H27.2449L25.6616 0Z" fill="white"/>
</svg>
